<svg height="77" viewBox="0 0 150 77" width="150" xmlns="http://www.w3.org/2000/svg"><mask id="a" fill="#fff"><path d="M0 .42h149.323v63.573H0z" fill-rule="evenodd"/></mask><mask id="b" fill="#fff"><path d="M0 76.8h149.323V0H0z" fill-rule="evenodd"/></mask><g fill="none" fill-rule="evenodd"><path d="M6.591.42h131.021a6.211 6.211 0 010 12.421H112.01a5.408 5.408 0 100 10.818h31.335a5.978 5.978 0 110 11.957h-15.7c0 5.984-4.851 10.836-10.835 10.836a4.785 4.785 0 00-4.785 4.785v12.756H43.241v-1.05c0-6.367-5.127-11.546-11.494-11.608l-19.843-.237a6.63 6.63 0 01.067-13.258h19.798c0-6.037 4.894-10.93 10.93-10.93h.927a6.653 6.653 0 000-13.308H6.591a6.591 6.591 0 110-13.182" fill="#dfecff" mask="url(#a)" transform="translate(0 12.515)"/><path d="M32.426 36.478h23.566v-2.946H32.426z" fill="#5fa0ff" mask="url(#b)"/><path d="M32.961 35.942h22.495v-1.875H32.961zm-1.071 1.072h24.638v-4.018H31.89z" fill="#0053cc" mask="url(#b)"/><path d="M30.158 76.265h28.338v-40.57H30.158z" fill="#fff" mask="url(#b)"/><path d="M30.693 76.265h-1.071V35.159h27.802v1.071h-26.73z" fill="#0053cc" mask="url(#b)"/><path d="M33.836 76.265h20.98v-36.92h-20.98z" fill="#b0d0ff" mask="url(#b)"/><path d="M34.372 75.73h19.909V39.88H34.372zm-1.071 1.07h22.051V38.81H33.301z" fill="#0053cc" mask="url(#b)"/><path d="M37.237 76.265h14.179v-33.8H37.237z" fill="#fff" mask="url(#b)"/><path d="M37.773 75.73H50.88V43H37.773zM36.7 76.8h15.25V41.93H36.7z" fill="#0053cc" mask="url(#b)"/><path d="M92.804 76.174h19.318V22.351H92.804z" fill="#b0d0ff" mask="url(#b)"/><path d="M92.804 32.885h19.318V22.351H92.804z" fill="#fff" mask="url(#b)"/><g fill="#0053cc"><path d="M112.658 76.71H92.803v-1.07h18.783V22.886H94.445v-1.071h18.213z" mask="url(#b)"/><path d="M94.445 33.42h17.677v-1.07H94.445zm0 3.281h15.815V35.63H94.445zm0 3.036h15.815v-1.071H94.445zm0 3.035h15.815v-1.071H94.445zm0 3.036h15.815v-1.072H94.445zm0 3.035h15.815V47.77H94.445zm0 3.036h15.815v-1.072H94.445zm0 3.035h15.815v-1.072H94.445zm0 3.036h15.815v-1.072H94.445zm0 3.034h15.815v-1.071H94.445zm0 3.036h15.815v-1.071H94.445zm0 3.036h15.815v-1.072H94.445zm0 3.035h15.815V69.02H94.445zm0 3.035h15.815v-1.071H94.445zm.418-41.936h1.071v-7.374h-1.071zm2.117 0h1.07v-7.374h-1.07zm2.116 0h1.071v-7.374h-1.071zm2.116 0h1.072v-7.374h-1.072zm2.118 0h1.07v-7.374h-1.07zm2.115 0h1.071v-7.374h-1.071zm2.117 0h1.072v-7.374h-1.072zm2.117 0h1.071v-7.374h-1.071z" mask="url(#b)"/></g><path d="M79.182 15.298H90.97V9.896H79.182z" fill="#fff" mask="url(#b)"/><path d="M79.718 14.762h10.715v-4.33H79.718zm-1.072 1.072h12.858V9.36H78.646z" fill="#0053cc" mask="url(#b)"/><path d="M76.758 76.054h16.634V13.616H76.758z" fill="#fff" mask="url(#b)"/><path d="M80.2 76.054h9.142V13.616H80.2z" fill="#b0d0ff" mask="url(#b)"/><path d="M78.646 10.349h1.072V0h-1.072zm11.787 0h1.071V0h-1.071zm-5.941-.476h1.072V3.118h-1.072zm9.436 66.182h-1.072V14.152H77.294v10.021h-1.071V13.08h17.705z" fill="#0053cc" mask="url(#b)"/><path d="M79.664 76.31h1.072V13.616h-1.072zm9.38-.484h1.072v-62.21h-1.072z" fill="#0053cc" mask="url(#b)"/><path d="M55.998 76.16h16.356V18.868H58.767V42.44h-2.769z" fill="#fff" mask="url(#b)"/><path d="M56.534 76.16h-1.071V41.767h2.768V18.332h14.123v1.072H59.303v23.435h-2.769z" fill="#0053cc" mask="url(#b)"/><path d="M74.664 76.16h-2.408V15.439l2.408-1.615z" fill="#0065ff" mask="url(#b)"/><g fill="#0053cc"><path d="M72.792 24.731H71.72v-9.578l3.48-2.334v11.712h-1.072v-9.703l-1.336.896z" mask="url(#b)"/><path d="M74.129 14.586H75.2V1.568h-1.071zM58.71 21.27h13.414v-1.071H58.709zm0 2.226h13.414v-1.072H58.709zm0 2.224h13.414v-1.07H58.709zm0 2.226h13.414v-1.072H58.709zm0 2.224h13.414V29.1H58.709zm0 2.226h8.056v-1.071H58.71zm0 2.225h8.056V33.55H58.71zm0 2.226h6.628v-1.071h-6.629zm0 2.225h5.914v-1.071h-5.915zm0 2.225h13.414v-1.071H58.709zm0 1.542h13.414v-1.072H58.709zm-2.112 1.75h1.071v-1.06h-1.071zm1.576 0h1.071v-1.06h-1.071zm1.576 0h1.07v-1.06h-1.07zm1.576 0h1.071v-1.06h-1.071zm1.575 0h1.072v-1.06H62.9zm1.576 0h1.072v-1.06h-1.072zm1.577 0h1.071v-1.06h-1.071zm1.576 0h1.071v-1.06H67.63zm1.576 0h1.071v-1.06h-1.071zm1.575 0h1.072v-1.06H70.78zm-14.183 2.214h1.071v-1.06h-1.071zm1.576 0h1.071v-1.06h-1.071zm1.576 0h1.07v-1.06h-1.07zm1.576 0h1.071v-1.06h-1.071zm1.575 0h1.072v-1.06H62.9zm1.576 0h1.072v-1.06h-1.072zm1.577 0h1.071v-1.06h-1.071zm1.576 0h1.071v-1.06H67.63zm1.576 0h1.071v-1.06h-1.071zm1.575 0h1.072v-1.06H70.78zm-14.183 2.215h1.071v-1.06h-1.071zm1.576 0h1.071v-1.06h-1.071zm1.576 0h1.07v-1.06h-1.07zm1.576 0h1.071v-1.06h-1.071zm1.575 0h1.072v-1.06H62.9zm1.576 0h1.072v-1.06h-1.072zm1.577 0h1.071v-1.06h-1.071zm1.576 0h1.071v-1.06H67.63zm1.576 0h1.071v-1.06h-1.071zm1.575 0h1.072v-1.06H70.78zm-14.183 2.216h1.071v-1.061h-1.071zm1.576 0h1.071v-1.061h-1.071zm1.576 0h1.07v-1.061h-1.07zm1.576 0h1.071v-1.061h-1.071zm1.575 0h1.072v-1.061H62.9zm1.576 0h1.072v-1.061h-1.072zm1.577 0h1.071v-1.061h-1.071zm1.576 0h1.071v-1.061H67.63zm1.576 0h1.071v-1.061h-1.071zm1.575 0h1.072v-1.061H70.78zm-14.183 2.214h1.071v-1.06h-1.071zm1.576 0h1.071v-1.06h-1.071zm1.576 0h1.07v-1.06h-1.07zm1.576 0h1.071v-1.06h-1.071zm1.575 0h1.072v-1.06H62.9zm1.576 0h1.072v-1.06h-1.072zm1.577 0h1.071v-1.06h-1.071zm1.576 0h1.071v-1.06H67.63zm1.576 0h1.071v-1.06h-1.071zm1.575 0h1.072v-1.06H70.78zm-14.183 2.215h1.071v-1.06h-1.071zm1.576 0h1.071v-1.06h-1.071zm1.576 0h1.07v-1.06h-1.07zm1.576 0h1.071v-1.06h-1.071zm1.575 0h1.072v-1.06H62.9zm1.576 0h1.072v-1.06h-1.072zm1.577 0h1.071v-1.06h-1.071zm1.576 0h1.071v-1.06H67.63zm1.576 0h1.071v-1.06h-1.071zm1.575 0h1.072v-1.06H70.78zm-14.183 2.214h1.071v-1.06h-1.071zm1.576 0h1.071v-1.06h-1.071zm1.576 0h1.07v-1.06h-1.07zm1.576 0h1.071v-1.06h-1.071zm1.575 0h1.072v-1.06H62.9zm1.576 0h1.072v-1.06h-1.072zm1.577 0h1.071v-1.06h-1.071zm1.576 0h1.071v-1.06H67.63zm1.576 0h1.071v-1.06h-1.071zm1.575 0h1.072v-1.06H70.78zm-14.183 2.215h1.071v-1.06h-1.071zm1.576 0h1.071v-1.06h-1.071zm1.576 0h1.07v-1.06h-1.07zm1.576 0h1.071v-1.06h-1.071zm1.575 0h1.072v-1.06H62.9zm1.576 0h1.072v-1.06h-1.072zm1.577 0h1.071v-1.06h-1.071zm1.576 0h1.071v-1.06H67.63zm1.576 0h1.071v-1.06h-1.071zm1.575 0h1.072v-1.06H70.78zm-14.183 2.215h1.071v-1.06h-1.071zm1.576 0h1.071v-1.06h-1.071zm1.576 0h1.07v-1.06h-1.07zm1.576 0h1.071v-1.06h-1.071zm1.575 0h1.072v-1.06H62.9zm1.576 0h1.072v-1.06h-1.072zm1.577 0h1.071v-1.06h-1.071zm1.576 0h1.071v-1.06H67.63zm1.576 0h1.071v-1.06h-1.071zm1.575 0h1.072v-1.06H70.78zm-14.183 2.215h1.071v-1.06h-1.071zm1.576 0h1.071v-1.06h-1.071zm1.576 0h1.07v-1.06h-1.07zm1.576 0h1.071v-1.06h-1.071zm1.575 0h1.072v-1.06H62.9zm1.576 0h1.072v-1.06h-1.072zm1.577 0h1.071v-1.06h-1.071zm1.576 0h1.071v-1.06H67.63zm1.576 0h1.071v-1.06h-1.071zm1.575 0h1.072v-1.06H70.78zm-14.183 2.215h1.071v-1.06h-1.071zm1.576 0h1.071v-1.06h-1.071zm1.576 0h1.07v-1.06h-1.07zm1.576 0h1.071v-1.06h-1.071zm1.575 0h1.072v-1.06H62.9zm1.576 0h1.072v-1.06h-1.072zm1.577 0h1.071v-1.06h-1.071zm1.576 0h1.071v-1.06H67.63zm1.576 0h1.071v-1.06h-1.071zm1.575 0h1.072v-1.06H70.78zm-14.183 2.214h1.071v-1.06h-1.071zm1.576 0h1.071v-1.06h-1.071zm1.576 0h1.07v-1.06h-1.07zm1.576 0h1.071v-1.06h-1.071zm1.575 0h1.072v-1.06H62.9zm1.576 0h1.072v-1.06h-1.072zm1.577 0h1.071v-1.06h-1.071zm1.576 0h1.071v-1.06H67.63zm1.576 0h1.071v-1.06h-1.071zm1.575 0h1.072v-1.06H70.78zm-14.183 2.215h1.071v-1.06h-1.071zm1.576 0h1.071v-1.06h-1.071zm1.576 0h1.07v-1.06h-1.07zm1.576 0h1.071v-1.06h-1.071zm1.575 0h1.072v-1.06H62.9zm1.576 0h1.072v-1.06h-1.072zm1.577 0h1.071v-1.06h-1.071zm1.576 0h1.071v-1.06H67.63zm1.576 0h1.071v-1.06h-1.071zm1.575 0h1.072v-1.06H70.78zM56.598 73.38h1.071v-1.06h-1.071zm1.576 0h1.071v-1.06h-1.071zm1.576 0h1.07v-1.06h-1.07zm1.576 0h1.071v-1.06h-1.071zm1.575 0h1.072v-1.06H62.9zm1.576 0h1.072v-1.06h-1.072zm1.577 0h1.071v-1.06h-1.071zm1.576 0h1.071v-1.06H67.63zm1.576 0h1.071v-1.06h-1.071zm1.575 0h1.072v-1.06H70.78zm-14.183 2.216h1.071v-1.06h-1.071zm1.576 0h1.071v-1.06h-1.071zm1.576 0h1.07v-1.06h-1.07zm1.576 0h1.071v-1.06h-1.071zm1.575 0h1.072v-1.06H62.9zm1.576 0h1.072v-1.06h-1.072zm1.577 0h1.071v-1.06h-1.071zm1.576 0h1.071v-1.06H67.63zm1.576 0h1.071v-1.06h-1.071zm1.575 0h1.072v-1.06H70.78zm-26.94-66.51h-3.053a.536.536 0 010-1.072h3.053a.536.536 0 010 1.072" mask="url(#b)"/><path d="M42.315 10.612a.536.536 0 01-.536-.535V7.024a.536.536 0 011.071 0v3.053c0 .295-.24.535-.535.535m92.068 48.956h-3.053a.536.536 0 010-1.072h3.053a.536.536 0 010 1.072" mask="url(#b)"/><path d="M132.857 61.094a.536.536 0 01-.536-.535v-3.053a.536.536 0 011.071 0v3.053c0 .295-.24.535-.535.535m-7.879-50.482h-3.053a.536.536 0 010-1.071h3.053a.536.536 0 010 1.071" mask="url(#b)"/><path d="M123.452 12.139a.536.536 0 01-.536-.536V8.55a.536.536 0 011.071 0v3.053c0 .296-.24.536-.535.536m13.726 17.67a.535.535 0 01-.379-.914l2.159-2.159a.535.535 0 11.757.757l-2.159 2.16a.53.53 0 01-.378.156" mask="url(#b)"/><path d="M139.337 29.809a.53.53 0 01-.379-.157l-2.16-2.159a.535.535 0 11.759-.757l2.158 2.16a.535.535 0 01-.378.913M13.646 39.296a.535.535 0 01-.379-.915l2.159-2.16a.537.537 0 01.757.76l-2.159 2.157a.532.532 0 01-.378.158" mask="url(#b)"/><path d="M15.805 39.296a.532.532 0 01-.379-.158l-2.16-2.157a.537.537 0 01.759-.76l2.158 2.16a.535.535 0 01-.378.915m2.079-20.646h29.083v-1.07H17.884zm79.696-7.766h22.689V9.813h-22.69zm19.619 17.846h17.818v-1.071H117.2zM49.618 9.086h12.426V8.014H49.618zm-3.621 0h2.55V8.014h-2.55zM26.253 61.287a.874.874 0 11-1.75 0 .874.874 0 011.75 0m8.458-31.309a.875.875 0 11-1.749 0 .875.875 0 011.75 0m91.462 12.102a.588.588 0 11-1.176 0 .588.588 0 011.176 0m-71.96-24.553a.587.587 0 11-1.175.001.587.587 0 011.175 0M16.355 46.23a1.143 1.143 0 11-2.286 0 1.143 1.143 0 012.286 0m105.056 17.578a1.142 1.142 0 11-2.284 0 1.142 1.142 0 012.284 0M96.302 6.496a1.142 1.142 0 11-2.285 0 1.142 1.142 0 012.285 0M11.466 76.704h1.957v-1.071h-1.957zm121.391 0h4.32v-1.071h-4.32zm-118.132 0h117.016v-1.071H14.725z" mask="url(#b)"/></g></g></svg>