<?xml version="1.0" encoding="UTF-8"?>
<svg width="150px" height="72px" viewBox="0 0 150 72" version="1.1" xmlns="http://www.w3.org/2000/svg" xmlns:xlink="http://www.w3.org/1999/xlink">
    <title>8F214E4D-4E6E-4391-A993-7190E4F2E933@1.00x</title>
    <defs>
        <polygon id="path-1" points="0 0.419571429 149.322786 0.419571429 149.322786 63.9931429 0 63.9931429"></polygon>
        <rect id="path-3" x="0" y="6.94444444" width="55" height="43.0555556" rx="11"></rect>
        <rect id="path-5" x="0" y="6.73076923" width="55" height="43.0555556" rx="11"></rect>
    </defs>
    <g id="Job-Seeker" stroke="none" stroke-width="1" fill="none" fill-rule="evenodd">
        <g id="JS-Upload-portfolio---Profile-[dsk]" transform="translate(-326.000000, -631.000000)">
            <g id="Group-20" transform="translate(151.000000, 607.000000)">
                <g id="Experience-Blue" transform="translate(175.000000, 24.000000)">
                    <g id="Group-3" transform="translate(0.000000, 8.000000)">
                        <mask id="mask-2" fill="white">
                            <use xlink:href="#path-1"></use>
                        </mask>
                        <g id="Clip-2"></g>
                        <path d="M137.612071,0.485 C141.041357,0.485 143.822786,3.26571429 143.822786,6.69571429 C143.822786,10.1257143 141.041357,12.9064286 137.612071,12.9064286 L112.009214,12.9064286 C109.022071,12.9064286 106.600643,15.3278571 106.600643,18.315 C106.600643,21.3028571 109.022071,23.7242857 112.009214,23.7242857 L143.344214,23.7242857 C146.646357,23.7242857 149.322786,26.4007143 149.322786,29.7028571 C149.322786,33.005 146.646357,35.6814286 143.344214,35.6814286 L127.644214,35.6814286 C127.644214,41.6657143 122.792786,46.5171429 116.8085,46.5171429 C114.166357,46.5171429 112.024214,48.6592857 112.024214,51.3021429 L112.024214,64.0585714 L43.2413571,64.0585714 L43.2413571,63.0078571 C43.2413571,56.6414286 38.1135,51.4628571 31.7470714,51.4 L11.9042143,51.1635714 C8.26921429,51.1271429 5.34064286,48.17 5.34064286,44.5342857 C5.34064286,40.8728571 8.30921429,37.905 11.9706429,37.905 L31.7692143,37.905 C31.7692143,31.8685714 36.6627857,26.975 42.6992143,26.975 L43.6263571,26.975 C47.3006429,26.975 50.2792143,23.9957143 50.2792143,20.3214286 C50.2792143,16.6471429 47.3006429,13.6678571 43.6263571,13.6678571 L6.59135714,13.6678571 C2.95135714,13.6678571 -7.14285716e-05,10.7171429 -7.14285716e-05,7.07642857 C-7.14285716e-05,3.43642857 2.95135714,0.485 6.59135714,0.485 L137.612071,0.485 Z" id="Fill-1" fill="#DFECFF" mask="url(#mask-2)"></path>
                    </g>
                    <path d="M43.8412857,4.08585714 L40.7884286,4.08585714 C40.4927143,4.08585714 40.2527143,3.84585714 40.2527143,3.55014286 C40.2527143,3.25442857 40.4927143,3.01442857 40.7884286,3.01442857 L43.8412857,3.01442857 C44.137,3.01442857 44.377,3.25442857 44.377,3.55014286 C44.377,3.84585714 44.137,4.08585714 43.8412857,4.08585714" id="Fill-214" fill="#0053CC"></path>
                    <path d="M42.3147143,5.61242857 C42.019,5.61242857 41.779,5.37242857 41.779,5.07671429 L41.779,2.02385714 C41.779,1.72814286 42.019,1.48814286 42.3147143,1.48814286 C42.6104286,1.48814286 42.8504286,1.72814286 42.8504286,2.02385714 L42.8504286,5.07671429 C42.8504286,5.37242857 42.6104286,5.61242857 42.3147143,5.61242857" id="Fill-215" fill="#0053CC"></path>
                    <path d="M134.383286,54.5675714 L131.330429,54.5675714 C131.034714,54.5675714 130.794714,54.3275714 130.794714,54.0318571 C130.794714,53.7361429 131.034714,53.4961429 131.330429,53.4961429 L134.383286,53.4961429 C134.679,53.4961429 134.919,53.7361429 134.919,54.0318571 C134.919,54.3275714 134.679,54.5675714 134.383286,54.5675714" id="Fill-216" fill="#0053CC"></path>
                    <path d="M132.856714,56.0944286 C132.561,56.0944286 132.321,55.8537143 132.321,55.5587143 L132.321,52.5058571 C132.321,52.2101429 132.561,51.9701429 132.856714,51.9701429 C133.152429,51.9701429 133.392429,52.2101429 133.392429,52.5058571 L133.392429,55.5587143 C133.392429,55.8537143 133.152429,56.0944286 132.856714,56.0944286" id="Fill-217" fill="#0053CC"></path>
                    <path d="M124.978286,5.61242857 L121.925429,5.61242857 C121.629714,5.61242857 121.389714,5.37242857 121.389714,5.07671429 C121.389714,4.781 121.629714,4.541 121.925429,4.541 L124.978286,4.541 C125.274,4.541 125.514,4.781 125.514,5.07671429 C125.514,5.37242857 125.274,5.61242857 124.978286,5.61242857" id="Fill-218" fill="#0053CC"></path>
                    <path d="M123.451714,7.13871429 C123.156,7.13871429 122.916,6.89871429 122.916,6.603 L122.916,3.55014286 C122.916,3.25442857 123.156,3.01442857 123.451714,3.01442857 C123.747429,3.01442857 123.987429,3.25442857 123.987429,3.55014286 L123.987429,6.603 C123.987429,6.89871429 123.747429,7.13871429 123.451714,7.13871429" id="Fill-219" fill="#0053CC"></path>
                    <path d="M137.177643,24.8088571 C137.0405,24.8088571 136.903357,24.7574286 136.799071,24.6524286 C136.589786,24.4424286 136.589786,24.1038571 136.799071,23.8952857 L138.957643,21.736 C139.166929,21.526 139.506214,21.526 139.7155,21.736 C139.924786,21.9452857 139.924786,22.2845714 139.7155,22.4931429 L137.556214,24.6524286 C137.451929,24.7574286 137.314786,24.8088571 137.177643,24.8088571" id="Fill-220" fill="#0053CC"></path>
                    <path d="M139.336571,24.8088571 C139.199429,24.8088571 139.062286,24.7574286 138.958,24.6524286 L136.798714,22.4931429 C136.589429,22.2845714 136.589429,21.9452857 136.798714,21.736 C137.008,21.526 137.347286,21.526 137.556571,21.736 L139.715143,23.8952857 C139.924429,24.1038571 139.924429,24.4424286 139.715143,24.6524286 C139.610857,24.7574286 139.473714,24.8088571 139.336571,24.8088571" id="Fill-221" fill="#0053CC"></path>
                    <path d="M13.6456429,34.2962143 C13.5085,34.2962143 13.3713571,34.2433571 13.2670714,34.1383571 C13.0577857,33.9297857 13.0577857,33.5912143 13.2670714,33.3812143 L15.4256429,31.2219286 C15.6349286,31.0133571 15.9742143,31.0133571 16.1835,31.2219286 C16.3927857,31.4312143 16.3927857,31.7705 16.1835,31.9805 L14.0242143,34.1383571 C13.9199286,34.2433571 13.7827857,34.2962143 13.6456429,34.2962143" id="Fill-222" fill="#0053CC"></path>
                    <path d="M15.8045714,34.2962143 C15.6674286,34.2962143 15.5302857,34.2433571 15.426,34.1383571 L13.2667143,31.9805 C13.0574286,31.7705 13.0574286,31.4312143 13.2667143,31.2219286 C13.476,31.0133571 13.8152857,31.0133571 14.0245714,31.2219286 L16.1831429,33.3812143 C16.3924286,33.5912143 16.3924286,33.9297857 16.1831429,34.1383571 C16.0788571,34.2433571 15.9417143,34.2962143 15.8045714,34.2962143" id="Fill-223" fill="#0053CC"></path>
                    <polygon id="Fill-224" fill="#0053CC" points="17.8835714 13.6507143 46.9671429 13.6507143 46.9671429 12.5792857 17.8835714 12.5792857"></polygon>
                    <polygon id="Fill-225" fill="#0053CC" points="97.5792857 5.88428571 120.268571 5.88428571 120.268571 4.81285714 97.5792857 4.81285714"></polygon>
                    <polygon id="Fill-226" fill="#0053CC" points="117.198571 23.73 135.017143 23.73 135.017143 22.6585714 117.198571 22.6585714"></polygon>
                    <polygon id="Fill-227" fill="#0053CC" points="49.6178571 4.08571429 62.0435714 4.08571429 62.0435714 3.01428571 49.6178571 3.01428571"></polygon>
                    <polygon id="Fill-228" fill="#0053CC" points="45.9971429 4.08571429 48.5471429 4.08571429 48.5471429 3.01428571 45.9971429 3.01428571"></polygon>
                    <path d="M26.2527143,56.287 C26.2527143,56.7698571 25.8612857,57.1612857 25.3777143,57.1612857 C24.8955714,57.1612857 24.5034286,56.7698571 24.5034286,56.287 C24.5034286,55.8034286 24.8955714,55.412 25.3777143,55.412 C25.8612857,55.412 26.2527143,55.8034286 26.2527143,56.287" id="Fill-229" fill="#0053CC"></path>
                    <path d="M34.7111429,24.9777143 C34.7111429,25.4612857 34.3197143,25.8527143 33.8361429,25.8527143 C33.354,25.8527143 32.9618571,25.4612857 32.9618571,24.9777143 C32.9618571,24.4948571 33.354,24.1027143 33.8361429,24.1027143 C34.3197143,24.1027143 34.7111429,24.4948571 34.7111429,24.9777143" id="Fill-230" fill="#0053CC"></path>
                    <path d="M126.173571,37.0807857 C126.173571,37.4050714 125.910714,37.6686429 125.585714,37.6686429 C125.261429,37.6686429 124.997857,37.4050714 124.997857,37.0807857 C124.997857,36.7565 125.261429,36.4936429 125.585714,36.4936429 C125.910714,36.4936429 126.173571,36.7565 126.173571,37.0807857" id="Fill-231" fill="#0053CC"></path>
                    <path d="M54.2141429,12.5272143 C54.2141429,12.8522143 53.9512857,13.1150714 53.6262857,13.1150714 C53.302,13.1150714 53.0384286,12.8522143 53.0384286,12.5272143 C53.0384286,12.2029286 53.302,11.9393571 53.6262857,11.9393571 C53.9512857,11.9393571 54.2141429,12.2029286 54.2141429,12.5272143" id="Fill-232" fill="#0053CC"></path>
                    <path d="M16.3545714,41.2297857 C16.3545714,41.8612143 15.8431429,42.3726429 15.2117143,42.3726429 C14.5817143,42.3726429 14.0695714,41.8612143 14.0695714,41.2297857 C14.0695714,40.5990714 14.5817143,40.0876429 15.2117143,40.0876429 C15.8431429,40.0876429 16.3545714,40.5990714 16.3545714,41.2297857" id="Fill-233" fill="#0053CC"></path>
                    <path d="M121.411071,58.8079286 C121.411071,59.4386429 120.899643,59.9500714 120.268929,59.9500714 C119.638214,59.9500714 119.126786,59.4386429 119.126786,58.8079286 C119.126786,58.1765 119.638214,57.6650714 120.268929,57.6650714 C120.899643,57.6650714 121.411071,58.1765 121.411071,58.8079286" id="Fill-234" fill="#0053CC"></path>
                    <path d="M96.3015714,1.49557143 C96.3015714,2.12628571 95.7901429,2.63771429 95.1587143,2.63771429 C94.5287143,2.63771429 94.0172857,2.12628571 94.0172857,1.49557143 C94.0172857,0.864857143 94.5287143,0.353428571 95.1587143,0.353428571 C95.7901429,0.353428571 96.3015714,0.864857143 96.3015714,1.49557143" id="Fill-235" fill="#0053CC"></path>
                    <polygon id="Fill-236" fill="#0053CC" points="11.4664286 71.7042857 13.4228571 71.7042857 13.4228571 70.6328571 11.4664286 70.6328571"></polygon>
                    <polygon id="Fill-237" fill="#0053CC" points="132.857143 71.7042857 137.177857 71.7042857 137.177857 70.6328571 132.857143 70.6328571"></polygon>
                    <polygon id="Fill-238" fill="#0053CC" points="14.725 71.7042857 131.740714 71.7042857 131.740714 70.6328571 14.725 70.6328571"></polygon>
                    <g id="Group-21" transform="translate(48.000000, 21.000000)">
                        <rect id="Rectangle" stroke="#0053CC" stroke-width="2" x="16.125" y="1" width="22.75" height="9.11111111" rx="4.55555556"></rect>
                        <rect id="Rectangle" stroke="#0053CC" stroke-width="2" x="18.6156798" y="3.38425926" width="17.5756579" height="9.11111111" rx="3"></rect>
                        <mask id="mask-4" fill="white">
                            <use xlink:href="#path-3"></use>
                        </mask>
                        <rect stroke="#0053CC" stroke-width="1.3" x="0.65" y="7.59444444" width="53.7" height="41.7555556" rx="11"></rect>
                        <rect id="Rectangle" fill="#5FA0FF" mask="url(#mask-4)" x="0" y="6.94444444" width="55" height="20.8333333"></rect>
                        <mask id="mask-6" fill="white">
                            <use xlink:href="#path-5"></use>
                        </mask>
                        <rect stroke="#0053CC" stroke-width="1.3" x="0.65" y="7.38076923" width="53.7" height="41.7555556" rx="11"></rect>
                        <path d="M32.5697259,24.0384615 L23.3066815,24.0384615 C22.1607882,24.0384615 21.2280702,25.1241549 21.2280702,26.4586974 L21.2280702,28.8910203 C21.2280702,30.2255628 22.1607882,31.3105452 23.3066815,31.3105452 L32.5697259,31.3105452 C33.71623,31.3105452 34.6489481,30.2255628 34.6489481,28.8910203 L34.6489481,26.4586974 C34.6483372,25.1248659 33.7156192,24.0384615 32.5697259,24.0384615 Z" id="Path" fill="#DFECFF" mask="url(#mask-6)"></path>
                        <path d="M32.4609114,24.0384615 L23.2867388,24.0384615 C22.1518395,24.0384615 21.2280702,25.1151157 21.2280702,26.4385473 L21.2280702,28.8506193 C21.2280702,30.1740509 22.1518395,31.25 23.2867388,31.25 L32.4609114,31.25 C33.5964156,31.25 34.520185,30.1740509 34.520185,28.8506193 L34.520185,26.4385473 C34.51958,25.1158208 33.5958107,24.0384615 32.4609114,24.0384615 Z" id="Path" stroke="#0053CC" stroke-width="1.3" mask="url(#mask-6)"></path>
                    </g>
                    <path d="M32.0044643,69.3958247 L33.5787946,69.3958247 L33.5787946,68.7632474 L32.0044643,68.7632474 L32.0044643,69.3958247 Z M31,70.4009794 L34.5832589,70.4009794 L34.5832589,67.7580928 L31,67.7580928 L31,70.4009794 Z" id="Fill-82" fill="#0053CC"></path>
                    <polygon id="Fill-84" fill="#0053CC" points="34.7380804 67.8539845 33.7336161 67.8539845 33.7336161 65.8061495 46.2311607 65.8061495 46.2311607 66.8113041 34.7380804 66.8113041"></polygon>
                    <path d="M60.4859821,70.4813918 L34.1261607,70.4813918 L34.1261607,67.6770103 L60.4859821,67.6770103 L63.9714732,69.0044845 C64.0404464,69.0306186 64.0404464,69.1277835 63.9714732,69.1545876 L60.4859821,70.4813918 Z" id="Fill-85" fill="#B0D0FF"></path>
                    <polygon id="Fill-86" fill="#FFFFFF" points="34.1258929 70.4813918 60.4857143 70.4813918 60.4857143 67.6770103 34.1258929 67.6770103"></polygon>
                    <polygon id="Fill-87" fill="#0065FF" points="48.3162946 70.4813918 57.2078125 70.4813918 57.2078125 67.6770103 48.3162946 67.6770103"></polygon>
                    <polygon id="Fill-88" fill="#B0D0FF" points="48.3162946 69.0795361 57.2078125 69.0795361 57.2078125 67.6770103 48.3162946 67.6770103"></polygon>
                    <path d="M34.628192,69.9788144 L60.3940402,69.9788144 L62.7565402,69.0795361 L60.3940402,68.1795876 L34.628192,68.1795876 L34.628192,69.9788144 Z M60.578192,70.9839691 L33.6237277,70.9839691 L33.6237277,67.174433 L60.6645759,67.207268 L64.150067,68.5347423 C64.3770759,68.6211856 64.5243973,68.8336082 64.5250761,69.0768557 C64.5264062,69.3207732 64.3804241,69.5352062 64.1534152,69.6236598 L60.578192,70.9839691 Z" id="Fill-89" fill="#0053CC"></path>
                    <polygon id="Fill-90" fill="#0053CC" points="47.8147321 70.3051546 48.8191964 70.3051546 48.8191964 67.8539175 47.8147321 67.8539175"></polygon>
                    <polygon id="Fill-91" fill="#0053CC" points="56.2810268 70.3051546 57.2854911 70.3051546 57.2854911 67.8539175 56.2810268 67.8539175"></polygon>
                    <polygon id="Fill-92" fill="#0053CC" points="59.9834821 70.3044845 60.9879464 70.3044845 60.9879464 67.8539175 59.9834821 67.8539175"></polygon>
                    <path d="M107.996496,55.5028454 L93.5944866,55.5028454 L93.5944866,59.8846495 C93.5944866,62.9999588 94.7643527,66.0013505 96.8723884,68.2944433 L96.8723884,70.4816598 L104.718594,70.4816598 L104.718594,68.2944433 C106.826629,66.0013505 107.996496,62.9999588 107.996496,59.8846495 L107.996496,55.5028454 Z" id="Fill-93" fill="#5FA0FF"></path>
                    <path d="M104.881384,55.5028454 L104.881384,59.8846495 C104.881384,62.9999588 103.711518,66.0013505 101.603482,68.2944433 L101.603482,70.4816598 L103.296339,70.4816598 L103.296339,68.2944433 C105.403705,66.0013505 106.574241,62.9999588 106.574241,59.8846495 L106.574241,55.5028454 L104.881384,55.5028454 Z" id="Fill-94" fill="#B0D0FF"></path>
                    <path d="M105.06808,70.9839691 L96.2174107,70.9839691 L96.2174107,68.4878351 C94.1020089,66.1156701 92.9395089,63.0687113 92.9395089,59.8850515 L92.9395089,55 L108.345982,55 L108.345982,59.8850515 C108.345982,60.8091237 108.246205,61.7365464 108.04933,62.6405155 L107.067634,62.4260825 C107.249107,61.5924742 107.341518,60.7374227 107.341518,59.8850515 L107.341518,56.0051546 L93.9439732,56.0051546 L93.9439732,59.8850515 C93.9439732,62.8817526 95.0609375,65.7484536 97.0886161,67.954433 L97.221875,68.0978351 L97.221875,69.9788144 L104.063616,69.9788144 L104.063616,68.0978351 L104.196205,67.954433 C104.58058,67.5356186 104.939509,67.0846392 105.262277,66.6122165 L106.091295,67.1797938 C105.779241,67.6368041 105.435045,68.0763918 105.06808,68.4878351 L105.06808,70.9839691 Z" id="Fill-95" fill="#0053CC"></path>
                    <path d="M94.1729911,64.2966753 L91.8044643,64.2966753 C89.8296875,64.2966753 88.2232143,62.6890979 88.2232143,60.7129639 C88.2232143,58.7368299 89.8296875,57.1292526 91.8044643,57.1292526 L93.3265625,57.1292526 L93.3265625,58.1344072 L91.8044643,58.1344072 C90.3834821,58.1344072 89.2276786,59.2910052 89.2276786,60.7129639 C89.2276786,62.1349227 90.3834821,63.2915206 91.8044643,63.2915206 L94.1729911,63.2915206 L94.1729911,64.2966753 Z" id="Fill-97" fill="#0053CC"></path>
                </g>
            </g>
        </g>
    </g>
</svg>